<svg xmlns="http://www.w3.org/2000/svg" viewBox="0 0 1440 320"><path fill="#ebd9bb" fill-opacity="1" d="M0,192L20,197.3C40,203,80,213,120,192C160,171,200,117,240,101.3C280,85,320,107,360,133.3C400,160,440,192,480,218.7C520,245,560,267,600,282.7C640,299,680,309,720,282.7C760,256,800,192,840,160C880,128,920,128,960,149.3C1000,171,1040,213,1080,245.3C1120,277,1160,299,1200,266.7C1240,235,1280,149,1320,101.3C1360,53,1400,43,1420,37.3L1440,32L1440,0L1420,0C1400,0,1360,0,1320,0C1280,0,1240,0,1200,0C1160,0,1120,0,1080,0C1040,0,1000,0,960,0C920,0,880,0,840,0C800,0,760,0,720,0C680,0,640,0,600,0C560,0,520,0,480,0C440,0,400,0,360,0C320,0,280,0,240,0C200,0,160,0,120,0C80,0,40,0,20,0L0,0Z"></path></svg>